PathFileType	4	(x/y/z)	TRC_MarkerData\Calibration\Standing_Cal_SL_Passive0001.trc
DataRate	CameraRate	NumFrames	NumMarkers	Units	OrigDataRate	OrigDataStartFrame	OrigNumFrames
240	240	11	50	mm	240	637	849
Frame#	Time	R_AC			L_AC			HEAD			STERN			C7			L_IC			R_IC			L_ASIS			R_ASIS			L_GT			R_GT			L_PSIS			R_PSIS			SACRAL			L_LAT_KNEE			L_MED_KNEE			R_LAT_KNEE			R_MED_KNEE			L_LAT_ANK			L_MED_ANK			R_LAT_ANK			R_MED_ANK			L_THIGH_PROX_POST			L_THIGH_PROX_ANT			L_THIGH_DIST_ANT			L_THIGH_DIST_POST			R_THIGH_PROX_POST			R_THIGH_PROX_ANT			R_THIGH_DIST_ANT			R_THIGH_DIST_POST			L_SHANK_PROX_POST			L_SHANK_PROX_ANT			L_SHANK_DIST_ANT			L_SHANK_DIST_POST			R_SHANK_PROX_POST			R_SHANK_PROX_ANT			R_SHANK_DIST_ANT			R_SHANK_DIST_POST			L_HEEL_LAT			L_HEEL_SUP			L_HEEL_MED			R_HEEL_LAT			R_HEEL_SUP			R_HEEL_MED			L_1ST_MET			L_5TH_MET			L_TOE			R_1ST_MET			R_5TH_MET			R_TOE			
		X1	Y1	Z1	X2	Y2	Z2	X3	Y3	Z3	X4	Y4	Z4	X5	Y5	Z5	X6	Y6	Z6	X7	Y7	Z7	X8	Y8	Z8	X9	Y9	Z9	X10	Y10	Z10	X11	Y11	Z11	X12	Y12	Z12	X13	Y13	Z13	X14	Y14	Z14	X15	Y15	Z15	X16	Y16	Z16	X17	Y17	Z17	X18	Y18	Z18	X19	Y19	Z19	X20	Y20	Z20	X21	Y21	Z21	X22	Y22	Z22	X23	Y23	Z23	X24	Y24	Z24	X25	Y25	Z25	X26	Y26	Z26	X27	Y27	Z27	X28	Y28	Z28	X29	Y29	Z29	X30	Y30	Z30	X31	Y31	Z31	X32	Y32	Z32	X33	Y33	Z33	X34	Y34	Z34	X35	Y35	Z35	X36	Y36	Z36	X37	Y37	Z37	X38	Y38	Z38	X39	Y39	Z39	X40	Y40	Z40	X41	Y41	Z41	X42	Y42	Z42	X43	Y43	Z43	X44	Y44	Z44	X45	Y45	Z45	X46	Y46	Z46	X47	Y47	Z47	X48	Y48	Z48	X49	Y49	Z49	X50	Y50	Z50	

637	2.6531	366.6	1561.8	465.76	387.76	1576.5	166.64	419.73	1816.7	327.27	469.54	1500.7	320.39	324	1577.4	316.34	447.3	1109.7	154.71	442.23	1121.1	474.33	506.81	1027.7	179.53	512.62	1030.9	449.95	426.76	939.52	117.24	429.83	953.37	505.44	324.68	1082.3	264.6	324	1088.5	357.62	310.32	1054.9	310.27	404.45	535.64	152.03	376.43	521.37	285.72	393.98	540.06	479.66	375.24	548.22	348.34	382.04	114.33	147.64	386.2	109.9	218.99	374.1	107.49	450.56	383.05	127.42	360.38	405.06	767.53	137.48	466.27	760.93	158.72	463.56	687.1	170.6	400.88	692.53	148.41	370.17	748.58	491.26	437.77	748.78	498.85	432.09	674.15	490.3	365.15	673.97	482.53	388.48	449.83	149.55	432.26	459.48	174.63	421.99	400.99	176.29	364.71	390.3	168.18	327.04	371.15	484.62	395.82	375.73	485.03	394.79	299.97	472.86	324.36	298.26	469.66	302.33	41.837	155.33	297.59	69.886	189.23	309.72	40.452	222.02	306.73	38.771	420.21	303.6	68.931	387.92	319.87	44.923	354.28	517.49	53.711	220.03	479.14	40.524	117.67	575.41	62.76	184.09	528.96	58.068	371.26	488.06	39.702	475.27	579.22	57.455	422.87
638	2.6573	366.53	1561.6	465.89	387.61	1576.3	166.59	419.73	1816.7	327.3	469.42	1500.6	320.41	323.93	1577.3	316.35	447.22	1109.7	154.71	442.23	1121.1	474.36	506.76	1027.7	179.51	512.64	1030.9	449.95	426.69	939.51	117.25	429.88	953.33	505.45	324.64	1082.3	264.65	323.98	1088.5	357.67	310.29	1054.8	310.32	404.42	535.64	152.03	376.4	521.37	285.73	394.04	540.04	479.68	375.25	548.21	348.36	382.03	114.33	147.64	386.19	109.9	218.99	374.09	107.48	450.57	383.04	127.42	360.38	405.01	767.53	137.49	466.22	760.93	158.71	463.51	687.1	170.6	400.82	692.53	148.43	370.23	748.56	491.28	437.83	748.76	498.85	432.15	674.13	490.31	365.21	673.95	482.55	388.45	449.83	149.55	432.23	459.48	174.64	421.96	400.99	176.3	364.68	390.3	168.18	327.08	371.14	484.65	395.86	375.71	485.04	394.82	299.94	472.87	324.39	298.24	469.69	302.33	41.834	155.33	297.59	69.883	189.23	309.72	40.449	222.02	306.73	38.752	420.21	303.6	68.911	387.94	319.86	44.917	354.28	517.49	53.713	220.03	479.14	40.525	117.67	575.41	62.765	184.09	528.95	58.076	371.26	488.06	39.701	475.27	579.21	57.466	422.87
639	2.6615	366.46	1561.4	466.02	387.46	1576.2	166.55	419.74	1816.6	327.33	469.29	1500.5	320.42	323.85	1577.3	316.36	447.14	1109.6	154.71	442.24	1121	474.39	506.71	1027.7	179.49	512.68	1030.9	449.95	426.63	939.5	117.26	429.92	953.29	505.47	324.59	1082.2	264.7	323.96	1088.4	357.72	310.27	1054.7	310.37	404.38	535.64	152.04	376.36	521.37	285.73	394.09	540.03	479.7	375.26	548.2	348.37	382.02	114.32	147.64	386.18	109.89	218.99	374.09	107.47	450.58	383.03	127.41	360.39	404.95	767.52	137.5	466.17	760.92	158.71	463.46	687.1	170.6	400.77	692.53	148.44	370.29	748.54	491.31	437.88	748.74	498.85	432.22	674.1	490.32	365.27	673.93	482.57	388.42	449.83	149.56	432.2	459.48	174.65	421.94	400.99	176.31	364.66	390.29	168.19	327.12	371.13	484.67	395.9	375.68	485.06	394.85	299.92	472.88	324.42	298.23	469.72	302.33	41.831	155.33	297.59	69.879	189.23	309.72	40.446	222.02	306.73	38.735	420.22	303.59	68.892	387.95	319.86	44.913	354.28	517.49	53.715	220.03	479.14	40.526	117.67	575.41	62.77	184.09	528.94	58.082	371.26	488.05	39.699	475.27	579.21	57.475	422.87
640	2.6656	366.4	1561.2	466.16	387.32	1576	166.51	419.75	1816.6	327.35	469.17	1500.3	320.44	323.78	1577.3	316.37	447.07	1109.6	154.71	442.25	1120.9	474.42	506.67	1027.6	179.48	512.71	1030.8	449.95	426.56	939.49	117.27	429.97	953.26	505.49	324.55	1082.2	264.75	323.95	1088.3	357.77	310.25	1054.7	310.42	404.35	535.65	152.05	376.32	521.36	285.74	394.14	540.01	479.72	375.26	548.19	348.39	382.02	114.32	147.64	386.18	109.89	218.99	374.08	107.46	450.59	383.02	127.4	360.39	404.89	767.52	137.51	466.12	760.92	158.71	463.41	687.1	170.6	400.71	692.52	148.45	370.34	748.52	491.33	437.94	748.72	498.86	432.28	674.08	490.33	365.33	673.91	482.59	388.39	449.83	149.57	432.17	459.48	174.66	421.91	400.99	176.31	364.63	390.29	168.2	327.15	371.12	484.7	395.93	375.65	485.07	394.87	299.9	472.89	324.44	298.22	469.75	302.33	41.828	155.33	297.59	69.874	189.23	309.72	40.443	222.02	306.73	38.719	420.23	303.59	68.876	387.97	319.86	44.909	354.29	517.49	53.717	220.03	479.14	40.527	117.67	575.41	62.774	184.09	528.93	58.087	371.26	488.05	39.698	475.27	579.2	57.483	422.87
641	2.6698	366.34	1561	466.29	387.18	1575.9	166.47	419.77	1816.6	327.36	469.04	1500.2	320.45	323.71	1577.2	316.38	446.99	1109.5	154.71	442.27	1120.9	474.45	506.62	1027.6	179.46	512.74	1030.8	449.95	426.49	939.47	117.28	430.03	953.22	505.51	324.51	1082.1	264.8	323.93	1088.3	357.82	310.23	1054.6	310.47	404.31	535.65	152.06	376.29	521.36	285.75	394.18	540	479.74	375.26	548.18	348.41	382.01	114.32	147.65	386.17	109.89	218.99	374.08	107.45	450.6	383.02	127.4	360.4	404.83	767.51	137.53	466.07	760.92	158.7	463.36	687.09	170.6	400.66	692.52	148.46	370.4	748.5	491.35	438	748.7	498.86	432.34	674.06	490.34	365.38	673.89	482.61	388.36	449.83	149.58	432.14	459.49	174.67	421.88	400.99	176.32	364.61	390.29	168.2	327.18	371.11	484.73	395.96	375.63	485.08	394.9	299.88	472.9	324.46	298.2	469.77	302.32	41.825	155.33	297.58	69.87	189.23	309.71	40.44	222.02	306.73	38.704	420.24	303.59	68.861	387.98	319.85	44.906	354.29	517.49	53.718	220.03	479.13	40.529	117.67	575.4	62.779	184.09	528.92	58.091	371.26	488.05	39.697	475.28	579.19	57.489	422.87
642	2.674	366.28	1560.8	466.43	387.04	1575.7	166.44	419.8	1816.5	327.36	468.92	1500.1	320.47	323.64	1577.2	316.4	446.92	1109.5	154.71	442.28	1120.8	474.47	506.58	1027.6	179.44	512.78	1030.8	449.96	426.43	939.46	117.29	430.08	953.19	505.52	324.47	1082.1	264.85	323.92	1088.2	357.86	310.21	1054.6	310.51	404.28	535.65	152.08	376.25	521.35	285.76	394.22	539.98	479.76	375.26	548.17	348.43	382.01	114.32	147.65	386.17	109.88	218.99	374.08	107.44	450.61	383.01	127.39	360.4	404.78	767.51	137.54	466.03	760.92	158.7	463.31	687.09	170.6	400.61	692.52	148.47	370.45	748.48	491.37	438.05	748.68	498.86	432.4	674.04	490.35	365.43	673.87	482.64	388.33	449.83	149.58	432.11	459.49	174.68	421.85	400.99	176.33	364.58	390.28	168.21	327.21	371.1	484.76	395.99	375.61	485.1	394.92	299.86	472.91	324.48	298.19	469.8	302.32	41.822	155.33	297.58	69.866	189.23	309.71	40.436	222.02	306.73	38.691	420.24	303.59	68.848	387.99	319.85	44.904	354.3	517.49	53.72	220.03	479.13	40.53	117.67	575.4	62.783	184.09	528.92	58.095	371.26	488.05	39.696	475.28	579.19	57.495	422.86
643	2.6782	366.22	1560.6	466.56	386.9	1575.6	166.41	419.84	1816.5	327.36	468.79	1499.9	320.49	323.57	1577.2	316.42	446.85	1109.4	154.71	442.29	1120.8	474.5	506.54	1027.6	179.42	512.81	1030.8	449.96	426.37	939.45	117.31	430.14	953.15	505.54	324.43	1082	264.9	323.91	1088.2	357.91	310.2	1054.5	310.56	404.24	535.65	152.09	376.22	521.35	285.78	394.26	539.97	479.79	375.25	548.16	348.45	382	114.32	147.65	386.16	109.88	218.99	374.07	107.43	450.62	383	127.38	360.41	404.72	767.5	137.55	465.98	760.92	158.7	463.27	687.09	170.6	400.56	692.52	148.49	370.5	748.46	491.4	438.11	748.66	498.87	432.46	674.03	490.36	365.48	673.86	482.66	388.3	449.83	149.59	432.08	459.49	174.69	421.83	400.99	176.34	364.56	390.28	168.22	327.24	371.09	484.79	396.02	375.58	485.11	394.94	299.85	472.93	324.5	298.18	469.83	302.32	41.82	155.33	297.58	69.862	189.23	309.71	40.433	222.02	306.73	38.68	420.25	303.59	68.837	388	319.85	44.903	354.3	517.49	53.721	220.03	479.13	40.531	117.67	575.4	62.788	184.09	528.91	58.097	371.26	488.05	39.695	475.28	579.19	57.5	422.86
644	2.6823	366.16	1560.4	466.7	386.75	1575.4	166.39	419.88	1816.5	327.35	468.66	1499.8	320.51	323.5	1577.1	316.44	446.78	1109.4	154.71	442.31	1120.7	474.52	506.5	1027.5	179.41	512.85	1030.7	449.96	426.31	939.44	117.32	430.19	953.12	505.56	324.4	1081.9	264.95	323.89	1088.1	357.95	310.18	1054.4	310.61	404.21	535.65	152.1	376.18	521.34	285.79	394.29	539.96	479.81	375.25	548.16	348.48	382	114.31	147.65	386.15	109.88	218.99	374.07	107.42	450.63	383	127.38	360.41	404.67	767.49	137.56	465.94	760.91	158.7	463.22	687.08	170.6	400.51	692.52	148.5	370.55	748.45	491.42	438.16	748.64	498.87	432.51	674.01	490.37	365.52	673.85	482.69	388.27	449.83	149.6	432.06	459.49	174.7	421.8	400.99	176.35	364.53	390.27	168.22	327.26	371.08	484.82	396.04	375.56	485.13	394.96	299.83	472.94	324.52	298.17	469.86	302.32	41.817	155.33	297.58	69.858	189.23	309.71	40.43	222.02	306.73	38.67	420.25	303.59	68.827	388.01	319.84	44.902	354.31	517.48	53.722	220.03	479.13	40.532	117.67	575.4	62.792	184.09	528.91	58.098	371.26	488.05	39.694	475.28	579.18	57.503	422.86
645	2.6865	366.1	1560.2	466.84	386.61	1575.3	166.38	419.94	1816.4	327.33	468.54	1499.7	320.53	323.43	1577.1	316.47	446.71	1109.4	154.72	442.32	1120.7	474.54	506.46	1027.5	179.39	512.88	1030.7	449.96	426.25	939.42	117.33	430.25	953.09	505.58	324.36	1081.9	265	323.88	1088.1	358	310.17	1054.4	310.66	404.18	535.65	152.11	376.15	521.33	285.8	394.32	539.95	479.83	375.23	548.16	348.5	381.99	114.31	147.65	386.15	109.87	218.99	374.07	107.42	450.64	382.99	127.38	360.42	404.62	767.49	137.58	465.9	760.91	158.69	463.18	687.08	170.6	400.46	692.52	148.51	370.59	748.44	491.44	438.21	748.62	498.88	432.56	674	490.38	365.56	673.83	482.71	388.24	449.83	149.61	432.03	459.49	174.71	421.78	400.99	176.36	364.51	390.27	168.23	327.28	371.07	484.85	396.06	375.54	485.14	394.97	299.82	472.95	324.54	298.16	469.88	302.32	41.814	155.33	297.58	69.854	189.23	309.71	40.427	222.02	306.72	38.661	420.26	303.59	68.82	388.02	319.84	44.902	354.31	517.48	53.723	220.03	479.13	40.534	117.67	575.39	62.795	184.09	528.91	58.099	371.26	488.05	39.693	475.28	579.18	57.506	422.86
646	2.6907	366.04	1560	466.98	386.45	1575.2	166.37	420	1816.4	327.3	468.42	1499.6	320.55	323.36	1577.1	316.5	446.65	1109.3	154.72	442.34	1120.7	474.56	506.42	1027.5	179.38	512.92	1030.7	449.96	426.2	939.41	117.34	430.31	953.07	505.6	324.33	1081.8	265.05	323.87	1088	358.04	310.16	1054.3	310.71	404.15	535.66	152.13	376.12	521.33	285.81	394.35	539.94	479.85	375.22	548.15	348.52	381.99	114.31	147.66	386.15	109.87	219	374.07	107.41	450.65	382.99	127.37	360.43	404.57	767.48	137.59	465.86	760.91	158.69	463.14	687.08	170.61	400.42	692.52	148.53	370.64	748.42	491.47	438.25	748.61	498.88	432.61	673.98	490.39	365.6	673.82	482.74	388.22	449.83	149.62	432	459.49	174.72	421.75	401	176.37	364.49	390.27	168.24	327.3	371.07	484.88	396.08	375.52	485.16	394.99	299.82	472.97	324.55	298.15	469.91	302.32	41.812	155.33	297.58	69.851	189.23	309.71	40.425	222.02	306.72	38.653	420.26	303.59	68.813	388.03	319.84	44.902	354.32	517.48	53.724	220.03	479.13	40.535	117.67	575.39	62.799	184.09	528.9	58.099	371.25	488.04	39.691	475.28	579.18	57.507	422.85
647	2.6948	365.99	1559.8	467.12	386.3	1575.1	166.36	420.07	1816.4	327.27	468.29	1499.5	320.58	323.29	1577.1	316.53	446.59	1109.3	154.72	442.36	1120.6	474.58	506.39	1027.5	179.36	512.96	1030.7	449.96	426.15	939.39	117.36	430.37	953.04	505.62	324.3	1081.8	265.1	323.85	1088	358.09	310.15	1054.3	310.75	404.13	535.66	152.14	376.09	521.33	285.83	394.37	539.93	479.87	375.21	548.16	348.54	381.98	114.31	147.66	386.14	109.87	219	374.07	107.4	450.65	382.98	127.37	360.44	404.52	767.47	137.61	465.83	760.91	158.69	463.1	687.08	170.61	400.38	692.52	148.54	370.68	748.42	491.49	438.3	748.59	498.89	432.65	673.97	490.4	365.64	673.81	482.77	388.2	449.83	149.63	431.98	459.49	174.73	421.73	401	176.38	364.47	390.26	168.25	327.32	371.06	484.91	396.09	375.5	485.17	395	299.81	472.98	324.57	298.14	469.93	302.31	41.81	155.33	297.58	69.848	189.23	309.72	40.423	222.02	306.72	38.647	420.27	303.59	68.809	388.03	319.84	44.904	354.32	517.48	53.725	220.03	479.13	40.536	117.67	575.39	62.802	184.1	528.9	58.099	371.25	488.04	39.69	475.28	579.17	57.509	422.85
